<svg width="1500" height="1723" viewBox="0 0 1500 1723" fill="none" xmlns="http://www.w3.org/2000/svg">
<g clip-path="url(#clip0_1_21)">
<g clip-path="url(#clip1_1_21)">
<g clip-path="url(#clip2_1_21)">
<g clip-path="url(#clip3_1_21)">
<g clip-path="url(#clip4_1_21)">
<g clip-path="url(#clip5_1_21)">
<g clip-path="url(#clip6_1_21)">
<g clip-path="url(#clip7_1_21)">
<rect x="419" y="93" width="823" height="1306" fill="#D9D9D9"/>
<path d="M556.453 0.00012207H944.12C1029.01 0.00012207 1105.82 12.7162 1174.55 38.1483C1243.29 63.2366 1301.89 97.6042 1350.34 141.251C1398.46 184.898 1435.58 235.762 1461.7 293.843C1487.47 352.268 1500.36 414.13 1500.36 479.428V1244.97C1500.36 1310.27 1487.47 1372.13 1461.7 1430.55C1435.58 1488.98 1398.46 1540.01 1350.34 1583.66C1301.89 1627.31 1243.29 1661.67 1174.55 1686.76C1105.82 1711.85 1029.01 1724.4 944.12 1724.4H556.453C471.909 1724.4 395.269 1711.85 326.534 1686.76C257.455 1661.67 198.858 1627.31 150.743 1583.66C102.629 1540.01 65.5115 1488.98 39.3921 1430.55C13.2727 1372.13 0.213013 1310.27 0.213013 1244.97V479.428C0.213013 414.13 13.2727 352.268 39.3921 293.843C65.5115 235.762 102.629 184.898 150.743 141.251C198.858 97.6042 257.455 63.2366 326.534 38.1483C395.269 12.7162 471.909 0.00012207 556.453 0.00012207ZM1176.1 580.469V317.557L1158.06 211.361L1077.64 130.941L949.275 113.413H479.641V1154.24H610.582V783.066H949.275L1077.64 768.116L1158.06 688.727L1176.1 580.469ZM1041.04 566.55L1023.51 637.176L941.542 649.548H610.582V246.931H941.542L1028.66 260.85L1041.04 335.084V566.55Z" fill="#EF4128"/>
</g>
</g>
</g>
</g>
</g>
</g>
</g>
</g>
<defs>
<clipPath id="clip0_1_21">
<rect width="1500" height="1723" fill="white"/>
</clipPath>
<clipPath id="clip1_1_21">
<rect width="1500" height="1723" fill="white" transform="translate(0.286255 0.697632)"/>
</clipPath>
<clipPath id="clip2_1_21">
<rect width="1500.35" height="1724.4" fill="white" transform="translate(0.11145 0.00012207)"/>
</clipPath>
<clipPath id="clip3_1_21">
<rect width="1500.35" height="1724.4" fill="white" transform="translate(0.11145 0.00012207)"/>
</clipPath>
<clipPath id="clip4_1_21">
<rect width="1500.35" height="1724.4" fill="white" transform="translate(0.11145 0.00012207)"/>
</clipPath>
<clipPath id="clip5_1_21">
<rect width="1500.35" height="1724.4" fill="white" transform="translate(0.11145 0.00012207)"/>
</clipPath>
<clipPath id="clip6_1_21">
<rect width="1500.35" height="1724.4" fill="white" transform="translate(0.11145 0.00012207)"/>
</clipPath>
<clipPath id="clip7_1_21">
<rect width="1500.35" height="1724.4" fill="white" transform="translate(0.11145 0.00012207)"/>
</clipPath>
</defs>
</svg>
